<svg width="660" height="1096" viewBox="0 0 660 1096" fill="none" xmlns="http://www.w3.org/2000/svg">
<g opacity="0.07">
<path d="M92.5212 1.38975C113.291 -1.76055 134.963 3.93681 152.34 16.2029C167.311 26.6145 178.857 42.0421 185.526 59.5363C189.947 69.7469 189.046 81.2198 189.268 92.1341C189.024 101.239 189.714 110.667 186.809 119.414C180.437 137.099 169.834 153.364 155.182 164.524C139.246 176.902 119.123 183.135 99.3597 181.817C76.5115 180.432 54.3737 169.06 39.2334 150.984C26.8604 136.406 20.3186 117.024 19.6401 97.6192C19.11 81.5214 20.7427 64.8203 27.7403 50.2753C34.0064 37.1267 44.1953 26.6592 54.8508 17.4094C65.485 8.12604 79.0879 3.69104 92.5212 1.38975Z" fill="#C19463"/>
<path d="M-43.0092 215.845C-32.4916 202.25 -15.5595 195.971 0.715218 195.681C39.9442 194.62 79.1944 195.1 118.434 195.513C144.611 196.038 170.821 195.536 196.956 197.424C211.894 198.261 225.985 207.243 234.287 220.258C239.047 227.474 241.804 235.842 244.582 244.053C263.74 301.63 281.361 359.765 299.852 417.599C357.763 417.677 415.684 417.755 473.605 418.012C487.038 418.269 500.524 418.046 513.905 419.587C520.892 420.258 527.55 423.609 532.438 428.915C542.923 440.064 545.987 458.128 539.859 472.416C537.134 478.482 533.392 484.113 528.727 488.671C524.486 492.871 518.305 492.871 512.876 493.307C487.102 494.759 461.274 494.346 435.468 494.692C388.117 494.96 340.767 495.385 293.416 494.703C282.814 494.189 272.116 494.86 261.599 493.229C250.954 489.922 242.005 482.18 235.061 473.277C229.802 466.395 226.155 458.396 221.786 450.912C221.044 648.945 220.355 846.99 219.645 1045.02C219.486 1047.85 220.196 1050.98 218.606 1053.51C215.234 1060.13 211.969 1066.92 207.261 1072.64C197.38 1085.15 182.685 1093.3 167.29 1094.71C148.821 1096.71 129.588 1088.67 117.83 1073.47C111.67 1065.95 108.309 1056.59 104.545 1047.64C101.735 1054.71 99.551 1062.23 94.9602 1068.34C85.9799 1081.54 72.3452 1091.45 57.0565 1094.31C41.524 1097.41 24.9524 1092.97 12.4203 1082.92C2.11473 1074.81 -5.26456 1063.03 -10.0569 1050.68C-10.64 909.159 -10.9369 767.629 -11.1595 626.111C-19.228 621.81 -27.8901 618.425 -34.8559 612.181C-49.1162 600.093 -56.9196 581.783 -61.6907 563.608C-69.1018 534.518 -71.0314 504.221 -70.9996 474.215C-70.9996 426.893 -69.7697 379.594 -68.5717 332.306C-67.6174 308.41 -67.575 284.191 -61.9133 260.877C-58.1601 244.924 -53.1557 228.659 -43.0092 215.845Z" fill="#C19463"/>
<path d="M337.894 309.07C360.137 308.534 382.392 308.389 404.636 308.266C462.642 308.221 520.658 307.953 578.654 309.327C583.796 308.556 585.99 315.818 584.135 319.884C581.018 326.419 576.024 331.658 571.518 337.132C551.522 360.044 530.635 382.063 510.003 404.327C469.714 403.802 429.424 403.422 389.135 402.942C369.256 380.845 348.856 359.274 329.39 336.775C325.001 331.357 320.156 326.129 317.24 319.605C315.628 316.532 316.413 311.718 319.795 310.478C325.764 309.394 331.85 309.383 337.894 309.07Z" fill="#C19463"/>
<path d="M351.21 511.65C363 511.125 374.854 511.583 386.665 511.426C440.917 511.504 495.191 511.27 549.433 511.549C560.905 519 572.388 526.619 582.81 535.679C611.797 561.071 634.422 594.541 647.644 631.741C670.948 698.579 660.186 776.912 620.883 834.679C603.824 859.769 581.739 881.073 556.431 896.624C529.342 913.313 498.637 923.401 467.37 925.982C425.777 929.601 383.23 919.703 346.959 897.964C294.212 867.288 256.679 810.705 244.773 748.783C241.125 727.501 240.998 705.706 242.588 684.201C246.596 634.4 268.607 586.81 301.845 551.386C316.35 535.646 333.525 523.056 351.21 511.65ZM442.179 572.846C439.433 577.873 439.762 583.794 439.391 589.368C439.168 593.167 434.863 593.424 432.149 593.915C412.407 596.507 394.458 608.616 382.233 624.893C375.066 634.902 369.425 646.856 369.362 659.647C368.969 673.153 368.715 687.542 374.992 699.774C380.335 710.242 390.312 716.799 400.3 721.558C413.022 727.479 426.477 731.367 439.603 736.137C439.412 759.395 440.356 782.732 438.224 805.924C434.768 805.89 432.234 803.075 429.955 800.696C423.37 793.3 418.78 784.229 415.048 774.957C412.535 769.181 410.404 763.093 406.629 758.055C404.106 754.659 400.543 752.346 396.886 750.581C392.136 748.291 386.877 750.335 382.318 752.112C373.475 755.988 368.736 766.21 368.513 775.907C367.941 792.094 375.553 807.488 386.018 818.916C398.147 832.623 414.634 841.516 431.958 845.314C434.429 846.096 437.822 846.297 438.924 849.224C439.984 852.988 439.295 857.021 440.016 860.864C440.727 865.232 442.921 869.902 447.077 871.589C451.276 873.365 456.344 871.399 458.645 867.344C462.165 861.546 461.147 854.351 461.316 847.827C470.392 845.213 479.637 842.99 488.31 839.058C517.043 826.68 537.071 793.032 532.056 760.233C529.914 745.051 521.369 731.121 509.452 722.396C494.969 713.403 477.877 710.89 462.79 703.338C461.889 699.26 462.09 695.026 461.889 690.882C461.433 671.064 462.08 651.235 462.409 631.417C465.621 634.657 468.844 637.896 471.961 641.248C477.687 647.47 481.959 655.067 484.833 663.166C487.77 671.075 490.993 679.465 497.46 684.95C501.691 688.614 507.49 689.798 512.802 688.681C518.199 687.519 524.03 685.464 527.168 680.325C533.36 671.042 532.798 658.686 529.893 648.252C524.581 629.753 511.89 613.822 495.679 604.841C487.377 600.227 478.694 596.071 469.449 594.127C467.116 593.412 464.094 594.306 462.281 592.306C460.871 588.899 461.613 585.045 461.041 581.47C460.383 575.94 458.475 569.629 453.343 567.037C448.806 564.836 444.119 568.657 442.179 572.846Z" fill="#C19463"/>
<path d="M427.579 636.858C430.399 635.003 433.262 632.937 436.665 632.602C439.464 636.042 439.051 640.857 439.411 645.08C439.719 659.379 439.814 673.723 438.86 688C438.478 690.011 438.754 692.469 437.461 694.133C431.682 693.217 426.731 689.475 422.289 685.699C417.655 681.789 414.432 676.069 413.69 669.836C412.047 657.357 417.189 643.549 427.579 636.858Z" fill="#C19463"/>
<path d="M462.303 744.527C466.342 744.795 469.65 747.632 472.958 749.811C477.528 753.419 482.702 756.983 485.077 762.703C488.947 772.4 487.537 783.973 482.225 792.765C478.747 798.764 473.022 802.763 467.318 806.104C465.844 807.064 463.448 807.333 462.78 805.221C461.253 800.842 461.603 796.049 461.402 791.48C461.274 775.818 461.168 760.144 462.303 744.527Z" fill="#C19463"/>
</g>
</svg>
