<svg width="908" height="397" viewBox="0 0 908 397" fill="none" xmlns="http://www.w3.org/2000/svg">
<g opacity="0.06">
<path d="M497.773 0.109863H500.44C517.78 1.06471 534.965 6.41686 549.659 17.0709C561.263 25.6645 571.2 37.0724 578.581 50.3397C587.206 65.9187 591.452 83.9854 592.786 102.153C592.653 118.887 590.074 135.698 583.738 150.9C569.822 184.646 539.366 208.919 506.354 211.231C491.348 212.638 476.187 209.623 462.293 203.165C460.314 202.135 458.358 201.054 456.424 199.924C440.818 190.853 427.635 176.681 418.677 159.644C417.12 156.528 415.631 153.362 414.23 150.146C408.05 134.693 405.183 117.631 405.849 100.695C407.072 71.5222 419.543 43.2789 439.551 24.785C455.713 9.23114 476.654 0.93907 497.773 0.109863Z" fill="#C19463"/>
<path d="M151.221 29.8108C164.604 20.8152 180.076 16.3927 195.571 15.6138C210.665 15.7143 225.893 19.207 239.343 27.097C249.591 33.1025 258.928 41.1684 266.575 50.943C273.444 59.5115 278.402 69.6881 283.004 79.9401C284.715 86.7748 286.761 93.5089 288.183 100.419C290.518 117.028 290.14 134.316 285.538 150.372C284.693 153.438 283.848 156.504 283.026 159.569C276.779 175.022 267.998 189.345 256.305 200.15C251.125 205.125 245.367 209.246 239.365 212.814C225.738 220.83 210.332 224.323 195.06 224.197C179.676 223.468 164.426 218.845 151.132 210.025C146.797 207.286 142.751 203.969 138.927 200.401C113.073 177.008 100.402 137.18 106.871 100.494C107.16 98.6098 107.471 96.7253 107.805 94.8156C111.628 78.6083 118.564 63.2806 128.501 50.742C135.015 42.475 142.684 35.3137 151.221 29.8108Z" fill="#C19463"/>
<path d="M373.172 248.974C387.866 247.039 402.65 246.059 417.433 245.707C432.35 245.556 447.266 245.682 462.183 245.657C476.944 245.657 491.683 245.657 506.444 245.657C521.339 245.657 536.255 245.632 551.15 245.657C565.911 245.657 580.65 245.657 595.411 245.657C610.083 245.632 624.866 245.179 639.45 247.793C645.541 249.351 651.632 251.084 657.501 253.522C666.949 257.567 675.819 263.146 683.933 269.93C694.226 278.725 703.162 289.504 710.121 301.817C715.878 311.943 719.858 323.15 723.259 334.533C690.202 339.634 659.168 359.535 638.894 389.562L636.782 392.477C636.404 382.124 637.716 371.521 635.826 361.319C633.181 352.775 622.599 353.328 618.531 360.188C617.041 397.553 618.042 435.068 617.864 472.483C617.819 508.39 617.641 544.297 617.953 580.205C595.233 596.387 572.825 613.097 550.216 629.455C544.147 633.877 538.056 638.249 532.009 642.747C524.073 639.908 516.181 637.043 508.289 634.128C505.044 623.726 501.642 613.373 498.352 602.995C493.061 586.26 487.615 569.551 482.302 552.791C471.564 519.195 460.805 485.6 450.29 451.904C444.977 434.942 439.708 417.956 434.351 401.02C423.28 367.5 414.788 332.648 399.56 301.088C392.49 286.363 384.021 272.342 373.706 260.231C370.838 256.839 367.948 253.421 365.08 250.029C367.103 249.753 371.149 249.225 373.172 248.974Z" fill="#C19463"/>
<path d="M108.494 258.798C152.222 256.336 196.06 258.321 239.832 257.743C254.149 257.944 268.488 257.165 282.782 258.396C298.677 259.653 314.305 265.633 327.443 275.91C336.402 282.996 344.294 291.741 350.963 301.54C359.233 313.828 365.924 327.422 371.282 341.594C372.682 345.438 374.016 349.308 375.372 353.177C380.908 369.385 385.776 385.868 391 402.226C396.38 419.439 401.849 436.651 407.206 453.889C410.141 463.161 413.097 472.408 415.965 481.705C418.077 488.916 420.478 496.002 422.679 503.189C427.836 519.798 433.149 536.382 438.485 552.941C443.776 569.576 449.155 586.21 454.468 602.844C456.269 608.423 458.092 614.001 459.848 619.605C463.494 631.389 467.429 643.074 471.141 654.833C472.92 660.412 474.72 666.015 476.499 671.618C486.458 675.237 496.418 678.805 506.377 682.423C516.914 686.167 527.429 690.037 537.966 693.806C542.724 690.263 547.526 686.796 552.305 683.303C565.221 673.905 578.137 664.533 591.031 655.135C592.565 654.004 594.076 652.873 595.655 651.768C610.394 640.988 625.199 630.309 639.916 619.504C647.541 613.875 655.144 608.172 663.413 603.799C670.349 602.844 677.308 602.367 684.31 602.493C699.16 602.568 714.01 602.518 728.86 602.543C743.666 602.543 758.493 602.543 773.321 602.543C788.105 602.543 802.888 602.543 817.671 602.518C838.546 601.412 860.309 606.513 876.627 622.067C898.635 640.988 908.483 673.101 906.571 703.656C906.549 711.772 906.505 719.914 906.705 728.055C906.882 753.409 906.771 778.762 906.949 804.116C907.149 854.346 907.216 904.551 907.683 954.781C907.838 963.022 907.372 971.264 905.927 979.355C900.902 991.819 890.832 1000.64 879.072 1003.65C867.401 1004.21 855.196 999.508 848.194 988.502C841.191 978.752 841.236 965.711 841.347 953.826C841.347 937.443 841.258 921.059 841.169 904.701C841.08 887.916 841.036 871.156 840.924 854.371C840.836 837.686 840.813 821.002 840.724 804.317C840.635 787.532 840.569 770.772 840.502 753.987C840.435 737.226 840.28 720.466 840.302 703.706C839.946 696.796 841.08 689.258 838.323 682.85C836.1 677.875 828.475 677.976 827.075 683.529C825.785 690.138 826.386 696.972 826.297 703.681C826.408 720.466 826.341 737.252 826.408 754.037C826.43 770.747 826.452 787.482 826.475 804.216C826.497 820.926 826.519 837.636 826.541 854.371C826.563 871.181 826.586 887.992 826.608 904.827C826.63 1006.09 826.83 1107.35 826.986 1208.62C826.63 1224.5 828.72 1240.93 824.185 1256.31C822.051 1260.96 819.561 1265.41 816.738 1269.58C805.778 1282.59 788.482 1287.34 773.455 1281.44C763.318 1276.64 754.914 1267.67 750.402 1256.29C745.689 1240.13 748.067 1222.97 747.534 1206.31C747.534 1189.52 747.534 1172.71 747.512 1155.93C747.512 1139.19 747.534 1122.48 747.534 1105.75C747.534 1088.96 747.534 1072.18 747.512 1055.39C747.512 1038.71 747.534 1022.02 747.534 1005.34C747.534 990.663 747.534 976.013 747.512 961.389C741.776 961.389 736.063 961.389 730.372 961.414C730.372 976.013 730.372 990.587 730.372 1005.19C730.394 1021.92 730.394 1038.63 730.372 1055.34C730.372 1072.15 730.372 1088.99 730.372 1105.8C730.394 1122.48 730.394 1139.14 730.372 1155.83C730.372 1172.64 730.372 1189.45 730.372 1206.28C729.816 1222.99 732.239 1240.25 727.46 1256.44C727.26 1256.99 726.882 1258.09 726.682 1258.65C718.812 1276.09 701.272 1286.69 684.043 1283.6C670.794 1280.73 659.234 1270.48 653.854 1256.49C648.964 1240.35 651.498 1223.02 650.898 1206.33C650.898 1190.33 650.875 1174.32 650.898 1158.31C650.875 1140.75 650.898 1123.19 650.875 1105.65C650.875 1089.67 650.853 1073.68 650.898 1057.7C650.942 938.649 650.875 819.594 650.875 700.54C647.185 703.229 643.495 705.918 639.805 708.631C624.821 719.637 609.727 730.517 594.721 741.523C589.541 745.267 584.384 749.011 579.249 752.806C570.09 759.263 561.397 766.877 551.171 771.149C535.632 774.893 521.205 765.495 506.644 761.123C494.928 756.876 483.213 752.655 471.475 748.584C468.251 751.072 465.095 753.635 461.716 755.846C447.91 763.585 431.149 762.379 417.944 753.61L416.699 752.906C402.004 741.473 397.558 721.245 391.867 703.355C381.219 669.96 370.548 636.54 359.922 603.121C354.52 586.185 349.073 569.249 343.716 552.313C332.823 518.29 322.108 484.192 311.081 450.22C315.194 484.77 322.352 518.718 327.776 553.017C330.555 569.852 333.534 586.637 336.38 603.473C339.27 620.182 342.115 636.917 344.983 653.652C347.851 670.412 350.763 687.147 353.608 703.907C356.409 720.291 359.211 736.699 362.034 753.082C366.146 777.556 370.57 801.955 374.438 826.479C377.084 841.38 366.658 857.085 353.364 858.567C345.139 859.472 336.869 858.894 328.621 859.02C324.464 858.995 320.307 858.969 316.15 858.969C316.083 874.372 316.105 889.801 316.105 905.204C316.105 921.512 316.105 937.845 316.128 954.152C316.105 971.365 316.105 988.577 316.128 1005.79C316.105 1022.12 316.105 1038.43 316.128 1054.74C316.105 1071.93 316.105 1089.11 316.128 1106.32C316.105 1122.63 316.105 1138.94 316.128 1155.25C316.128 1172.38 316.083 1189.52 316.128 1206.66C316.528 1223.7 316.372 1241.81 308.014 1256.71C302.078 1266.99 293.608 1275.23 283.738 1280.33C269.91 1286.77 254.016 1286.51 240.299 1279.81C230.873 1274.6 222.737 1266.59 217.024 1256.64C208.732 1241.61 208.554 1223.47 208.976 1206.36C208.999 1189.72 208.976 1173.09 208.999 1156.45C208.976 1139.59 208.976 1122.76 208.976 1105.92C208.976 1089.29 208.976 1072.65 208.999 1056.04C208.976 1039.16 208.976 1022.27 208.976 1005.39C208.976 988.753 208.976 972.119 208.999 955.509C208.976 938.624 208.976 921.738 208.976 904.877C208.999 889.575 208.976 874.297 208.976 859.02C204.352 858.995 199.729 858.994 195.105 858.994C192.037 858.994 188.947 858.994 185.901 858.994C185.834 874.272 185.879 889.524 185.857 904.802C185.857 921.235 185.857 937.669 185.857 954.102C185.857 971.113 185.879 988.1 185.879 1005.11C185.857 1021.57 185.857 1038.05 185.857 1054.51C185.857 1071.52 185.879 1088.53 185.879 1105.57C185.857 1122.08 185.857 1138.59 185.857 1155.1C185.879 1172.11 185.857 1189.12 185.879 1206.16C186.212 1223.19 186.346 1241.36 177.987 1256.31C171.407 1268.17 161.292 1277.29 149.643 1281.99C135.482 1287.19 119.654 1285.74 106.538 1277.72C98.2238 1272.29 91.1767 1264.53 86.1748 1255.26C78.1718 1240.38 78.5497 1222.56 78.7943 1205.78C78.8165 1189.04 78.7721 1172.31 78.8165 1155.6C78.7943 1139.02 78.7943 1122.46 78.7943 1105.9C78.7943 1100.75 78.8387 1095.65 78.861 1090.54C88.3312 1090.59 97.8681 1090.39 107.249 1088.69C124.923 1084.34 140.973 1072.65 151.688 1056.2C151.844 1055.94 152.155 1055.47 152.288 1055.24C160.825 1041.82 165.182 1025.56 165.871 1009.16C166.294 942.493 165.871 875.805 166.116 809.141C166.271 789.844 162.381 770.093 152.044 754.389C151.888 754.162 151.577 753.685 151.444 753.459C140.662 736.875 124.3 725.04 106.382 721.22C103.115 720.592 99.8466 720.09 96.5787 719.562C96.3342 714.235 96.1341 708.883 95.6895 703.581C92.9329 674.584 75.9933 648.652 52.9846 635.837C54.8076 625.057 56.6526 614.303 58.52 603.548C66.7231 552.489 76.9492 501.832 83.6183 450.496C67.8124 501.078 51.4951 551.459 35.4447 601.965C30.0427 619.001 24.574 636.013 19.1942 653.074C15.8818 663.653 12.6362 674.257 9.05704 684.735C15.5484 684.961 22.1508 684.961 28.4198 687.072C35.2668 689.635 40.2465 696.068 43.6478 703.028C46.8268 719.562 44.9149 736.598 45.404 753.383C45.3818 761.274 45.404 769.138 45.404 777.029C50.9616 777.003 56.5193 777.003 62.0769 777.003C76.7491 778.059 92.7551 773.687 106.249 782.155C111.54 787.884 114.763 795.598 115.008 803.915C115.075 820.725 114.941 837.536 115.008 854.371C115.008 871.156 115.008 887.966 115.008 904.777C114.986 921.461 115.008 938.171 115.008 954.881C114.963 971.767 115.052 988.678 115.03 1005.56C114.897 1014.66 111.184 1023.18 104.848 1028.76C91.399 1035.89 76.1933 1031.97 61.9213 1032.93C46.1598 1032.98 30.4206 1032.9 14.6814 1032.9L11.658 1032.98C-16.9749 1032.68 -45.6079 1033.05 -74.2409 1032.9L-77.1975 1032.98C-105.364 1032.68 -133.552 1033.05 -161.74 1032.93C-170.877 1032.73 -180.169 1033.76 -189.173 1031.65C-195.709 1030.04 -200.422 1024.08 -204.09 1018.18C-204.801 1013.93 -205.512 1009.68 -205.912 1005.41C-206.09 988.552 -205.89 971.691 -205.957 954.831C-205.957 938.171 -205.957 921.487 -205.957 904.802C-205.957 887.992 -205.957 871.156 -205.957 854.346C-205.868 837.586 -206.157 820.851 -205.868 804.091C-205.535 800.171 -204.957 796.301 -204.423 792.406C-200.755 786.225 -196.02 780.044 -189.284 778.36C-179.68 775.898 -169.721 777.33 -159.962 777.029C-152.604 777.029 -145.223 777.003 -137.865 777.029H-136.22C-135.508 752.504 -138.176 727.703 -134.664 703.405C-131.018 694.761 -124.282 688.052 -115.968 685.816C-106.008 684.584 -95.9601 685.162 -85.9564 685.062C-82.5996 674.458 -79.1761 663.854 -75.797 653.225C-73.863 647.22 -71.9288 641.189 -70.1059 635.133C-66.7491 624.881 -63.4146 614.629 -60.1689 604.327C-54.678 587.341 -49.276 570.304 -43.8295 553.293C-38.4497 536.558 -33.2255 519.723 -27.9124 502.963C-27.2232 500.751 -26.5785 498.54 -25.9338 496.329C-21.221 481.78 -16.6415 467.181 -12.062 452.582C-6.81558 435.922 -1.54697 419.288 3.67722 402.654C14.9481 368.43 23.3957 332.045 43.2031 302.445C48.8942 294.304 55.1187 286.539 62.3881 280.157C75.5931 268.322 91.7547 260.809 108.494 258.798ZM-27.1121 755.921C-41.1618 763.208 -58.057 762.655 -71.1064 752.956C-75.5747 748.81 -79.4206 743.207 -85.3117 741.574C-85.5784 753.383 -85.3561 765.219 -85.4228 777.029C-80.7766 777.029 -76.1527 777.003 -71.4843 777.029C-56.6565 777.003 -41.8287 777.003 -27.0009 777.003C-19.8649 777.003 -12.7066 777.003 -5.57063 777.029C-5.59286 765.369 -5.37059 753.735 -5.5262 742.101C-14.9075 741.146 -19.4647 751.951 -27.1121 755.921Z" fill="#C19463"/>
<path d="M656.522 452.984C664.769 415.293 694.692 385.19 728.949 381.069C743.799 378.858 758.982 381.622 772.832 387.854C780.368 391.849 787.66 396.523 794.04 402.629C803.288 411.273 810.757 422.203 816.159 434.315C818.871 440.571 820.805 447.23 822.539 453.939C825.696 469.946 825.696 486.806 821.828 502.662C820.316 508.24 818.627 513.793 816.337 519.045C810.891 531.307 803.421 542.514 793.973 551.208C787.571 557.364 780.168 562.013 772.587 566.008C758.716 572.365 743.51 574.878 728.66 572.717C695.069 568.32 665.369 539.222 656.922 502.184C653.143 486.153 653.054 469.116 656.522 452.984Z" fill="#C19463"/>
</g>
</svg>
